<svg width="20" height="17" viewBox="0 0 20 17" fill="none" xmlns="http://www.w3.org/2000/svg">
<path d="M11.9167 5.41667C11.9167 6.0125 11.4292 6.5 10.8333 6.5H1.08333C0.4875 6.5 0 6.0125 0 5.41667C0 4.82083 0.4875 4.33333 1.08333 4.33333H10.8333C11.4292 4.33333 11.9167 4.82083 11.9167 5.41667ZM0 1.08333C0 1.67917 0.4875 2.16667 1.08333 2.16667H10.8333C11.4292 2.16667 11.9167 1.67917 11.9167 1.08333C11.9167 0.4875 11.4292 0 10.8333 0H1.08333C0.4875 0 0 0.4875 0 1.08333ZM7.58333 9.75C7.58333 9.15417 7.09583 8.66667 6.5 8.66667H1.08333C0.4875 8.66667 0 9.15417 0 9.75C0 10.3458 0.4875 10.8333 1.08333 10.8333H6.5C7.09583 10.8333 7.58333 10.3458 7.58333 9.75ZM16.2608 7.4425L17.03 6.67333C17.1302 6.5729 17.2493 6.49323 17.3803 6.43886C17.5114 6.3845 17.6519 6.35652 17.7938 6.35652C17.9356 6.35652 18.0761 6.3845 18.2072 6.43886C18.3382 6.49323 18.4573 6.5729 18.5575 6.67333L19.3267 7.4425C19.7492 7.865 19.7492 8.5475 19.3267 8.97L18.5575 9.73917L16.2608 7.4425ZM15.4917 8.21167L9.90167 13.8017C9.80417 13.8992 9.75 14.0292 9.75 14.1808V15.7083C9.75 16.0117 9.98833 16.25 10.2917 16.25H11.8192C11.96 16.25 12.1008 16.1958 12.1983 16.0875L17.7883 10.4975L15.4917 8.21167Z" fill="#9C98A6"/>
</svg>
