<svg width="17" height="17" viewBox="0 0 17 17" fill="none" xmlns="http://www.w3.org/2000/svg">
<path d="M15.426 7.25582C15.6893 7.25582 15.904 7.34587 16.0703 7.52598C16.2504 7.69223 16.3404 7.90698 16.3404 8.17021C16.3404 8.43345 16.2504 8.65512 16.0703 8.83523C15.904 9.00149 15.6893 9.08461 15.426 9.08461H9.08461V15.4052C9.08461 15.6685 8.99456 15.8902 8.81445 16.0703C8.6482 16.2504 8.43345 16.3404 8.17021 16.3404C7.90698 16.3404 7.68531 16.2504 7.5052 16.0703C7.33894 15.8902 7.25582 15.6685 7.25582 15.4052V9.08461H0.914399C0.651163 9.08461 0.42949 9.00149 0.249382 8.83523C0.0831271 8.65512 0 8.43345 0 8.17021C0 7.90698 0.0831271 7.69223 0.249382 7.52598C0.42949 7.34587 0.651163 7.25582 0.914399 7.25582H7.25582V0.914399C7.25582 0.651163 7.33894 0.436418 7.5052 0.270164C7.68531 0.0900546 7.90698 0 8.17021 0C8.43345 0 8.6482 0.0900546 8.81445 0.270164C8.99456 0.436418 9.08461 0.651163 9.08461 0.914399V7.25582H15.426Z" fill="url(#paint0_linear_4_279)"/>
<defs>
<linearGradient id="paint0_linear_4_279" x1="16.3404" y1="16.3404" x2="5.00104" y2="-2.94109" gradientUnits="userSpaceOnUse">
<stop stop-color="#15B6D6"/>
<stop offset="1" stop-color="#15D6D6"/>
</linearGradient>
</defs>
</svg>
